<svg width="96" height="25" viewBox="0 0 96 25" fill="none" xmlns="http://www.w3.org/2000/svg">
<path d="M0.528 -1.90735e-06H9.136V0.927999H1.584V13.984H7.888V14.912H1.584V23.072H9.136V24H0.528V-1.90735e-06ZM15.4728 24.352C14.4488 24.352 13.5421 24.1813 12.7528 23.84C11.9634 23.4773 11.3981 23.0187 11.0568 22.464V20.768C11.4621 21.6853 12.0168 22.368 12.7208 22.816C13.4248 23.2427 14.3208 23.456 15.4088 23.456C16.4541 23.456 17.2968 23.136 17.9368 22.496C18.5768 21.8347 18.8968 20.992 18.8968 19.968C18.8968 19.0933 18.7154 18.4213 18.3528 17.952C17.9901 17.4613 17.4034 16.9707 16.5928 16.48L15.3768 15.776C14.5021 15.2427 13.8408 14.8267 13.3928 14.528C12.9661 14.208 12.6248 13.856 12.3688 13.472C12.1128 13.0667 11.9848 12.5973 11.9848 12.064C11.9848 11.2107 12.2834 10.528 12.8808 10.016C13.4781 9.504 14.2568 9.248 15.2168 9.248C16.3901 9.248 17.3714 9.51467 18.1608 10.048V11.456C17.4994 10.5813 16.5501 10.144 15.3128 10.144C14.6301 10.144 14.0754 10.3147 13.6488 10.656C13.2221 10.9973 13.0088 11.4347 13.0088 11.968C13.0088 12.4373 13.1368 12.8533 13.3928 13.216C13.6488 13.5573 14.0008 13.8773 14.4488 14.176C14.9181 14.4747 15.6861 14.9227 16.7528 15.52C17.8408 16.1387 18.6408 16.7787 19.1528 17.44C19.6648 18.08 19.9208 18.9227 19.9208 19.968C19.9208 21.2907 19.4834 22.3573 18.6088 23.168C17.7554 23.9573 16.7101 24.352 15.4728 24.352ZM26.5978 24.352C25.5738 24.352 24.6671 24.1813 23.8778 23.84C23.0884 23.4773 22.5231 23.0187 22.1818 22.464V20.768C22.5871 21.6853 23.1418 22.368 23.8458 22.816C24.5498 23.2427 25.4458 23.456 26.5338 23.456C27.5791 23.456 28.4218 23.136 29.0618 22.496C29.7018 21.8347 30.0218 20.992 30.0218 19.968C30.0218 19.0933 29.8404 18.4213 29.4778 17.952C29.1151 17.4613 28.5284 16.9707 27.7178 16.48L26.5018 15.776C25.6271 15.2427 24.9658 14.8267 24.5178 14.528C24.0911 14.208 23.7498 13.856 23.4938 13.472C23.2378 13.0667 23.1098 12.5973 23.1098 12.064C23.1098 11.2107 23.4084 10.528 24.0058 10.016C24.6031 9.504 25.3818 9.248 26.3418 9.248C27.5151 9.248 28.4964 9.51467 29.2858 10.048V11.456C28.6244 10.5813 27.6751 10.144 26.4378 10.144C25.7551 10.144 25.2004 10.3147 24.7738 10.656C24.3471 10.9973 24.1338 11.4347 24.1338 11.968C24.1338 12.4373 24.2618 12.8533 24.5178 13.216C24.7738 13.5573 25.1258 13.8773 25.5738 14.176C26.0431 14.4747 26.8111 14.9227 27.8778 15.52C28.9658 16.1387 29.7658 16.7787 30.2778 17.44C30.7898 18.08 31.0458 18.9227 31.0458 19.968C31.0458 21.2907 30.6084 22.3573 29.7338 23.168C28.8804 23.9573 27.8351 24.352 26.5978 24.352ZM41.2428 23.488C42.3521 23.488 43.4081 23.2 44.4108 22.624C45.4134 22.048 46.2454 21.2587 46.9068 20.256V21.888C46.1174 22.7627 45.2534 23.4027 44.3148 23.808C43.3761 24.192 42.3094 24.384 41.1148 24.384C39.7921 24.384 38.5441 24.032 37.3708 23.328C36.2188 22.624 35.2908 21.6853 34.5868 20.512C33.9041 19.3387 33.5628 18.0907 33.5628 16.768C33.5628 15.3387 33.9041 14.0587 34.5868 12.928C35.2694 11.776 36.1974 10.88 37.3708 10.24C38.5654 9.6 39.8881 9.28 41.3388 9.28C43.5574 9.28 45.4454 10.1547 47.0028 11.904L36.9548 21.824C37.6588 22.4 38.3414 22.8267 39.0028 23.104C39.6641 23.36 40.4108 23.488 41.2428 23.488ZM34.5868 16.672C34.5868 18.4427 35.1734 19.9573 36.3468 21.216L45.7228 11.904C45.0188 11.2853 44.3361 10.848 43.6748 10.592C43.0134 10.3147 42.2241 10.176 41.3068 10.176C40.0054 10.176 38.8428 10.464 37.8188 11.04C36.8161 11.5947 36.0268 12.3627 35.4508 13.344C34.8748 14.3253 34.5868 15.4347 34.5868 16.672ZM50.2035 9.6H51.2275V12.8C51.6968 11.7333 52.4968 10.88 53.6275 10.24C54.7582 9.57867 56.0062 9.248 57.3715 9.248C59.1422 9.248 60.5395 9.81333 61.5635 10.944C62.6088 12.0533 63.1315 13.6107 63.1315 15.616V24H62.1075V15.616C62.1075 13.888 61.6808 12.544 60.8275 11.584C59.9955 10.624 58.8222 10.144 57.3075 10.144C56.1982 10.144 55.1742 10.4 54.2355 10.912C53.3182 11.4027 52.5822 12.0853 52.0275 12.96C51.4942 13.8347 51.2275 14.8267 51.2275 15.936V24H50.2035V9.6ZM73.9563 24.416C72.5696 24.416 71.2896 24.0853 70.1163 23.424C68.9643 22.7627 68.0469 21.856 67.3643 20.704C66.6816 19.552 66.3403 18.2507 66.3403 16.8C66.3403 15.456 66.6816 14.2187 67.3643 13.088C68.0469 11.936 68.9749 11.0187 70.1483 10.336C71.3429 9.65333 72.6549 9.312 74.0843 9.312C75.2789 9.312 76.3029 9.504 77.1563 9.888C78.0096 10.272 78.8416 10.8693 79.6523 11.68V13.408C78.9483 12.3627 78.1589 11.5733 77.2843 11.04C76.4309 10.4853 75.3643 10.208 74.0843 10.208C72.9109 10.208 71.8016 10.5173 70.7563 11.136C69.7323 11.7333 68.9109 12.544 68.2923 13.568C67.6736 14.592 67.3643 15.6907 67.3643 16.864C67.3643 18.144 67.6629 19.296 68.2603 20.32C68.8576 21.3227 69.6576 22.112 70.6603 22.688C71.6843 23.2427 72.7829 23.52 73.9563 23.52C76.3456 23.52 78.2443 22.4427 79.6523 20.288V22.016C78.8843 22.8267 78.0309 23.4347 77.0923 23.84C76.1749 24.224 75.1296 24.416 73.9563 24.416ZM89.8053 23.488C90.9146 23.488 91.9706 23.2 92.9733 22.624C93.9759 22.048 94.8079 21.2587 95.4693 20.256V21.888C94.6799 22.7627 93.8159 23.4027 92.8773 23.808C91.9386 24.192 90.8719 24.384 89.6773 24.384C88.3546 24.384 87.1066 24.032 85.9333 23.328C84.7813 22.624 83.8533 21.6853 83.1493 20.512C82.4666 19.3387 82.1253 18.0907 82.1253 16.768C82.1253 15.3387 82.4666 14.0587 83.1493 12.928C83.8319 11.776 84.7599 10.88 85.9333 10.24C87.1279 9.6 88.4506 9.28 89.9013 9.28C92.1199 9.28 94.0079 10.1547 95.5653 11.904L85.5173 21.824C86.2213 22.4 86.9039 22.8267 87.5653 23.104C88.2266 23.36 88.9733 23.488 89.8053 23.488ZM83.1493 16.672C83.1493 18.4427 83.7359 19.9573 84.9093 21.216L94.2853 11.904C93.5813 11.2853 92.8986 10.848 92.2373 10.592C91.5759 10.3147 90.7866 10.176 89.8693 10.176C88.5679 10.176 87.4053 10.464 86.3813 11.04C85.3786 11.5947 84.5893 12.3627 84.0133 13.344C83.4373 14.3253 83.1493 15.4347 83.1493 16.672Z" fill="#0E0E0E"/>
</svg>
