<svg width="32" height="32" viewBox="0 0 32 32" fill="none" xmlns="http://www.w3.org/2000/svg">
<path d="M10.6646 3.2002C6.54833 3.2002 3.20001 6.55161 3.20001 10.6689V21.3356C3.20001 25.4519 6.55143 28.8002 10.6688 28.8002H21.3354C25.4517 28.8002 28.8 25.4488 28.8 21.3314V10.6648C28.8 6.54851 25.4486 3.2002 21.3313 3.2002H10.6646ZM23.4667 7.46686C24.0555 7.46686 24.5333 7.94473 24.5333 8.53353C24.5333 9.12233 24.0555 9.6002 23.4667 9.6002C22.8779 9.6002 22.4 9.12233 22.4 8.53353C22.4 7.94473 22.8779 7.46686 23.4667 7.46686ZM16 9.6002C19.5296 9.6002 22.4 12.4706 22.4 16.0002C22.4 19.5298 19.5296 22.4002 16 22.4002C12.4704 22.4002 9.60001 19.5298 9.60001 16.0002C9.60001 12.4706 12.4704 9.6002 16 9.6002ZM16 11.7335C14.8684 11.7335 13.7832 12.1831 12.983 12.9832C12.1829 13.7834 11.7333 14.8686 11.7333 16.0002C11.7333 17.1318 12.1829 18.217 12.983 19.0172C13.7832 19.8173 14.8684 20.2669 16 20.2669C17.1316 20.2669 18.2168 19.8173 19.017 19.0172C19.8172 18.217 20.2667 17.1318 20.2667 16.0002C20.2667 14.8686 19.8172 13.7834 19.017 12.9832C18.2168 12.1831 17.1316 11.7335 16 11.7335Z" fill="black"/>
</svg>
