<svg width="32" height="32" viewBox="0 0 32 32" fill="none" xmlns="http://www.w3.org/2000/svg">
<g clip-path="url(#clip0_15_394)">
<path d="M29.7436 26.0481H2.25641C1.01079 26.0468 0.00135664 25.0599 0 23.842V8.1583C0.00135664 6.94042 1.01079 5.95347 2.25641 5.95215H29.7436C30.9892 5.95347 31.9986 6.94042 32 8.1583V23.842C31.9986 25.0599 30.9892 26.0468 29.7436 26.0481ZM2.25641 7.1555C1.68996 7.1555 1.23077 7.60447 1.23077 8.1583V23.842C1.23077 24.3958 1.68996 24.8448 2.25641 24.8448H29.7436C30.31 24.8448 30.7692 24.3958 30.7692 23.842V8.1583C30.7692 7.60447 30.31 7.1555 29.7436 7.1555H2.25641Z" fill="#393939"/>
<path d="M9.9522 23.2752V22.3048C9.9522 21.9327 9.72571 21.6902 9.35394 21.6902C9.15869 21.6902 8.94977 21.755 8.80411 21.9635C8.69086 21.7854 8.53075 21.6902 8.28668 21.6902C8.10236 21.6822 7.92634 21.7673 7.81807 21.9167V21.7214H7.51074V23.2741H7.81807V22.3857C7.81807 22.1123 7.97974 21.9815 8.20624 21.9815C8.43273 21.9815 8.56199 22.1271 8.56199 22.3857V23.2752H8.86932V22.3857C8.86932 22.1123 9.03099 21.9815 9.25749 21.9815C9.48398 21.9815 9.61324 22.1271 9.61324 22.3857V23.2752H9.9522ZM14.9984 21.7386H14.4321V21.27H14.1256V21.7386H13.8022V22.0119H14.1256V22.7414C14.1256 23.0972 14.2548 23.3076 14.643 23.3076C14.79 23.3046 14.9341 23.2657 15.0628 23.1944L14.9655 22.921C14.8783 22.9756 14.7771 23.0037 14.6742 23.0019C14.5126 23.0019 14.4317 22.9046 14.4317 22.743V21.9994H14.998V21.7405L14.9984 21.7386ZM17.8772 21.6902C17.7069 21.6864 17.5472 21.7724 17.4566 21.9167V21.7214H17.1493V23.2741H17.4566V22.4021C17.4566 22.1431 17.5859 21.9815 17.7963 21.9815C17.8674 21.9844 17.9378 21.9952 18.0064 22.0139L18.1037 21.7226C18.0295 21.7039 17.9536 21.693 17.8772 21.6902ZM13.5265 21.8518C13.3649 21.7386 13.1384 21.6902 12.8959 21.6902C12.5077 21.6902 12.2652 21.8682 12.2652 22.1756C12.2652 22.4345 12.4433 22.5797 12.7826 22.6285L12.9443 22.6446C13.1223 22.677 13.2356 22.7418 13.2356 22.8226C13.2356 22.9359 13.1063 23.0179 12.8634 23.0179C12.678 23.0217 12.4963 22.9649 12.346 22.8562L12.1843 23.0987C12.4108 23.2604 12.6858 23.294 12.8482 23.294C13.3012 23.294 13.5437 23.0839 13.5437 22.7926C13.5437 22.5192 13.3485 22.3884 13.0099 22.3396L12.8482 22.3236C12.7026 22.3076 12.5749 22.2587 12.5749 22.1619C12.5749 22.0486 12.7041 21.9666 12.8822 21.9666C13.0774 21.9666 13.2704 22.0475 13.3676 22.0959L13.5265 21.8518ZM18.2169 22.4989C18.2169 22.9675 18.5243 23.3076 19.0257 23.3076C19.2522 23.3076 19.4138 23.2592 19.5755 23.1296L19.4138 22.8871C19.2994 22.9798 19.1569 23.0311 19.0097 23.0327C18.7363 23.0327 18.5243 22.8226 18.5243 22.5153C18.5243 22.208 18.7336 21.9994 19.0097 21.9994C19.1569 22.0011 19.2994 22.0524 19.4138 22.1451L19.5755 21.9026C19.4138 21.7733 19.2522 21.7245 19.0257 21.7245C18.5403 21.6921 18.2169 22.0319 18.2169 22.5009V22.4989ZM16.0496 21.6902C15.5966 21.6902 15.2893 22.0135 15.2893 22.4989C15.2893 22.9843 15.6126 23.3076 16.0816 23.3076C16.3098 23.3125 16.5326 23.2382 16.7123 23.0976L16.5506 22.8711C16.4207 22.9718 16.262 23.0284 16.0976 23.0327C15.8875 23.0327 15.661 22.9035 15.629 22.6285H16.7775V22.4993C16.7775 22.0139 16.4862 21.6905 16.0496 21.6905V21.6902ZM16.0336 21.9815C16.2601 21.9815 16.4218 22.1271 16.4378 22.3696H15.597C15.6454 22.1431 15.7923 21.9815 16.0336 21.9815ZM11.8446 22.4989V21.7226H11.5373V21.9178C11.424 21.7722 11.2639 21.6913 11.0359 21.6913C10.5993 21.6913 10.2755 22.0311 10.2755 22.5001C10.2755 22.9691 10.5989 23.3088 11.0359 23.3088C11.2624 23.3088 11.424 23.228 11.5373 23.0823V23.2776H11.8446V22.4989ZM10.5993 22.4989C10.5993 22.2076 10.7773 21.9815 11.0847 21.9815C11.376 21.9815 11.5533 22.208 11.5533 22.4989C11.5533 22.8062 11.358 23.0163 11.0847 23.0163C10.7773 23.0323 10.5993 22.7898 10.5993 22.4989ZM22.552 21.6902C22.3817 21.6864 22.2219 21.7724 22.1314 21.9167V21.7214H21.8241V23.2741H22.131V22.4021C22.131 22.1431 22.2602 21.9815 22.4707 21.9815C22.5418 21.9844 22.6122 21.9952 22.6808 22.0139L22.7781 21.7226C22.7039 21.7039 22.628 21.693 22.5516 21.6902H22.552ZM21.3551 22.4989V21.7226H21.0477V21.9178C20.9345 21.7722 20.7744 21.6913 20.5463 21.6913C20.1097 21.6913 19.786 22.0311 19.786 22.5001C19.786 22.9691 20.1093 23.3088 20.5463 23.3088C20.7728 23.3088 20.9345 23.228 21.0477 23.0823V23.2776H21.3551V22.4989ZM20.1097 22.4989C20.1097 22.2076 20.2878 21.9815 20.5951 21.9815C20.8864 21.9815 21.0637 22.208 21.0637 22.4989C21.0637 22.8062 20.8685 23.0163 20.5951 23.0163C20.2878 23.0323 20.1097 22.7898 20.1097 22.4989ZM24.4768 22.4989V21.1079H24.1694V21.9167C24.0562 21.771 23.8961 21.6902 23.668 21.6902C23.2314 21.6902 22.9077 22.0299 22.9077 22.4989C22.9077 22.9679 23.2311 23.3076 23.668 23.3076C23.8945 23.3076 24.0562 23.2268 24.1694 23.0811V23.2764H24.4768V22.4989ZM23.2314 22.4989C23.2314 22.2076 23.4095 21.9815 23.7168 21.9815C24.0082 21.9815 24.1855 22.208 24.1855 22.4989C24.1855 22.8062 23.9902 23.0163 23.7168 23.0163C23.4091 23.0327 23.2311 22.7902 23.2311 22.4989H23.2314Z" fill="#393939"/>
<path d="M23.4908 10.4071C21.4816 8.39677 18.3136 8.13335 16 9.78424C14.2257 8.52003 11.8937 8.35299 9.95726 9.35139C8.02081 10.3498 6.80437 12.3463 6.80512 14.525C6.80437 16.7037 8.02081 18.7002 9.95726 19.6986C11.8937 20.6971 14.2257 20.53 16 19.2658C17.7744 20.53 20.1064 20.6971 22.0428 19.6986C23.9792 18.7002 25.1957 16.7037 25.1949 14.525C25.1996 12.9799 24.5859 11.4971 23.4908 10.4071ZM16 18.3442C14.907 17.3761 14.2813 15.9859 14.2813 14.5258C14.2813 13.0657 14.907 11.6755 16 10.7074C17.0924 11.6759 17.7176 13.0659 17.7176 14.5258C17.7176 15.9857 17.0924 17.3757 16 18.3442ZM12.6276 19.6172C9.8161 19.6172 7.53693 17.3381 7.53693 14.5266C7.53693 11.7151 9.8161 9.43591 12.6276 9.43591C13.6137 9.43302 14.5789 9.72069 15.4026 10.263C14.2208 11.3661 13.5499 12.9102 13.5499 14.5268C13.5499 16.1434 14.2208 17.6874 15.4026 18.7905C14.5789 19.3327 13.6137 19.6203 12.6276 19.6172ZM19.3725 19.6172C18.3873 19.6201 17.423 19.333 16.5998 18.7917C17.781 17.6881 18.4515 16.1439 18.4515 14.5274C18.4515 12.9108 17.781 11.3667 16.5998 10.263C17.4235 9.72069 18.3887 9.43302 19.3748 9.43591C22.1863 9.43591 24.4655 11.7151 24.4655 14.5266C24.4655 17.3381 22.1863 19.6172 19.3748 19.6172H19.3725Z" fill="#393939"/>
</g>
<defs>
<clipPath id="clip0_15_394">
<rect width="32" height="32" fill="white"/>
</clipPath>
</defs>
</svg>
