<svg width="32" height="32" viewBox="0 0 32 32" fill="none" xmlns="http://www.w3.org/2000/svg">
<path d="M23.8666 3.46683C22.5333 2.00016 20.2666 1.3335 17.2 1.3335H8.39997C7.7333 1.3335 7.19997 1.7335 7.19997 2.40016L3.46664 25.3335C3.3333 25.7335 3.7333 26.2668 4.26664 26.2668H9.7333L11.0666 17.8668C11.2 17.2002 11.7333 16.8002 12.2666 16.8002H14.8C19.8666 16.8002 23.7333 14.8002 24.9333 8.80016C24.9333 8.66683 25.0666 8.40016 25.0666 8.26683C25.3333 6.26683 25.0666 4.80016 23.8666 3.46683ZM26.2666 9.60016C26.2666 9.7335 26.1333 9.86683 26.1333 10.1335C24.9333 16.0002 21.0666 18.1335 16 18.1335H13.4666C12.8 18.1335 12.4 18.5335 12.2666 19.2002L10.9333 27.6002L10.5333 30.0002C10.5333 30.4002 10.8 30.8002 11.2 30.8002H15.7333C16.2666 30.8002 16.6666 30.4002 16.8 29.8668V29.6002L17.6 24.1335V23.8668C17.7333 23.3335 18.1333 22.9335 18.6666 22.9335H19.4666C23.8666 22.9335 27.3333 21.2002 28.4 16.0002C28.8 13.8668 28.6666 12.0002 27.4666 10.8002C27.0666 10.2668 26.6666 9.86683 26.2666 9.60016Z" fill="#393939"/>
</svg>
