<svg width="32" height="32" viewBox="0 0 32 32" fill="none" xmlns="http://www.w3.org/2000/svg">
<path d="M23.834 23.4199C23.2938 23.4211 22.7587 23.3153 22.2596 23.1087C21.7605 22.902 21.3072 22.5986 20.926 22.2159L16.726 18.0159C16.5773 17.8747 16.3801 17.7959 16.175 17.7959C15.9699 17.7959 15.7727 17.8747 15.624 18.0159L11.408 22.2319C11.0269 22.6148 10.5737 22.9183 10.0745 23.125C9.57537 23.3316 9.04022 23.4373 8.5 23.4359H7.672L12.992 28.7559C14.652 30.4159 17.346 30.4159 19.006 28.7559L24.34 23.4199H23.834ZM8.5 8.56391C9.6 8.56391 10.632 8.99191 11.408 9.76791L15.624 13.9839C15.6964 14.0565 15.7825 14.114 15.8772 14.1533C15.9719 14.1926 16.0735 14.2128 16.176 14.2128C16.2785 14.2128 16.3801 14.1926 16.4748 14.1533C16.5695 14.114 16.6556 14.0565 16.728 13.9839L20.928 9.78391C21.3089 9.40127 21.7618 9.09787 22.2606 8.89122C22.7593 8.68457 23.2941 8.57876 23.834 8.57991H24.34L19.006 3.24591C18.2083 2.44876 17.1267 2.00098 15.999 2.00098C14.8713 2.00098 13.7897 2.44876 12.992 3.24591L7.672 8.56591L8.5 8.56391Z" fill="#393939"/>
<path d="M28.754 12.9919L25.53 9.76791C25.4576 9.79763 25.3802 9.81324 25.302 9.81391H23.836C23.078 9.81391 22.336 10.1219 21.802 10.6579L17.602 14.8579C17.4152 15.0457 17.1931 15.1947 16.9486 15.2963C16.704 15.398 16.4418 15.4503 16.177 15.4503C15.9121 15.4503 15.6499 15.398 15.4054 15.2963C15.1608 15.1947 14.9388 15.0457 14.752 14.8579L10.536 10.6399C9.99507 10.1012 9.26336 9.7979 8.49998 9.79591H6.69998C6.62536 9.79531 6.55147 9.78108 6.48198 9.75391L3.24598 12.9919C1.58598 14.6519 1.58598 17.3459 3.24598 19.0079L6.48198 22.2439C6.55071 22.2162 6.6239 22.2013 6.69798 22.1999H8.49998C9.25998 22.1999 9.99998 21.8939 10.536 21.3579L14.75 17.1399C15.1345 16.7738 15.6451 16.5696 16.176 16.5696C16.7069 16.5696 17.2175 16.7738 17.602 17.1399L21.802 21.3399C22.336 21.8759 23.078 22.1819 23.836 22.1819H25.302C25.382 22.1819 25.46 22.2019 25.53 22.2299L28.754 19.0059C30.414 17.3459 30.414 14.6519 28.754 12.9919Z" fill="#393939"/>
</svg>
