<svg width="32" height="32" viewBox="0 0 32 32" fill="none" xmlns="http://www.w3.org/2000/svg">
<g clip-path="url(#clip0_15_384)">
<path d="M2.25641 7.1555C1.68996 7.1555 1.23077 7.60447 1.23077 8.1583V23.842C1.23077 24.3958 1.68996 24.8448 2.25641 24.8448H29.7436C30.31 24.8448 30.7692 24.3958 30.7692 23.842V8.1583C30.7692 7.60447 30.31 7.1555 29.7436 7.1555H2.25641ZM2.25641 5.95215H29.7436C30.9898 5.95215 32 6.93987 32 8.1583V23.842C32 25.0604 30.9898 26.0481 29.7436 26.0481H2.25641C1.01023 26.0481 0 25.0604 0 23.842V8.1583C0 6.93987 1.01023 5.95215 2.25641 5.95215Z" fill="#393939"/>
<path d="M12.0575 20.0378L13.4162 12.0649H15.5894L14.2297 20.0378H12.0575Z" fill="#393939"/>
<path d="M22.0809 12.2367C21.6503 12.0752 20.9757 11.9019 20.1332 11.9019C17.9859 11.9019 16.4733 12.9832 16.4604 14.533C16.4483 15.6786 17.5403 16.3177 18.3646 16.6991C19.2104 17.0899 19.4948 17.3391 19.4908 17.6881C19.4854 18.2225 18.8153 18.4666 18.1907 18.4666C17.3209 18.4666 16.8588 18.3458 16.1451 18.0481L15.8651 17.9214L15.5601 19.7062C16.0676 19.9288 17.0062 20.1216 17.9808 20.1316C20.2652 20.1316 21.7481 19.0626 21.765 17.4077C21.7732 16.5007 21.1942 15.8105 19.9404 15.2415C19.1808 14.8726 18.7156 14.6265 18.7206 14.253C18.7206 13.9216 19.1143 13.5673 19.9651 13.5673C20.6757 13.5562 21.1905 13.7112 21.5916 13.8727L21.7863 13.9647L22.0809 12.2367Z" fill="#393939"/>
<path d="M27.673 12.0649H25.9938C25.4736 12.0649 25.0843 12.2069 24.8559 12.7261L21.6284 20.0327H23.9104C23.9104 20.0327 24.2836 19.0503 24.3679 18.8346C24.6173 18.8346 26.8341 18.838 27.1511 18.838C27.2161 19.1171 27.4155 20.0327 27.4155 20.0327H29.432L27.673 12.0649ZM25.0088 17.2132C25.1885 16.7538 25.8746 14.9844 25.8746 14.9844C25.8618 15.0057 26.053 14.5228 26.1627 14.2235L26.3097 14.9109C26.3097 14.9109 26.7258 16.814 26.8127 17.2131L25.0088 17.2132Z" fill="#393939"/>
<path d="M10.2127 12.0649L8.08515 17.5018L7.85846 16.3969C7.46239 15.1232 6.22835 13.7433 4.84875 13.0525L6.79417 20.0251L9.09343 20.0224L12.5147 12.0649H10.2127Z" fill="#393939"/>
<path d="M6.1 12.0649H2.59579L2.56805 12.2308C5.2943 12.8908 7.09823 14.4856 7.84704 16.4019L7.08508 12.738C6.95353 12.2332 6.57199 12.0825 6.1 12.0649Z" fill="#393939"/>
</g>
<defs>
<clipPath id="clip0_15_384">
<rect width="32" height="32" fill="white"/>
</clipPath>
</defs>
</svg>
